<svg width="70" height="78" fill="none" xmlns="http://www.w3.org/2000/svg"><g filter="url(#filter0_i_131_4)"><path d="M0 13L35 0l35 13-4 48-31 17L4 61 0 13z" fill="#C06A1A"/></g><path d="M19.734 44.82l6.75-.656c.407 2.266 1.227 3.93 2.461 4.992 1.25 1.063 2.93 1.594 5.04 1.594 2.234 0 3.913-.469 5.038-1.406 1.141-.953 1.711-2.063 1.711-3.328 0-.813-.242-1.5-.726-2.063-.469-.578-1.297-1.078-2.485-1.5-.812-.281-2.664-.781-5.554-1.5-3.719-.922-6.328-2.055-7.828-3.398-2.11-1.89-3.164-4.196-3.164-6.914 0-1.75.492-3.383 1.476-4.899 1-1.531 2.43-2.695 4.29-3.492 1.874-.797 4.132-1.195 6.773-1.195 4.312 0 7.554.945 9.726 2.836 2.188 1.89 3.336 4.414 3.446 7.57l-6.938.305c-.297-1.766-.938-3.032-1.922-3.797-.969-.782-2.43-1.172-4.383-1.172-2.015 0-3.593.414-4.734 1.242-.734.531-1.102 1.242-1.102 2.133 0 .812.344 1.508 1.032 2.086.875.734 3 1.5 6.375 2.297 3.375.797 5.867 1.625 7.476 2.484 1.625.844 2.89 2.008 3.797 3.492.922 1.469 1.383 3.29 1.383 5.461 0 1.969-.547 3.813-1.64 5.531-1.094 1.72-2.641 3-4.641 3.844-2 .828-4.493 1.242-7.477 1.242-4.344 0-7.68-1-10.008-3-2.328-2.015-3.718-4.945-4.172-8.789z" fill="#FFF0F0"/><defs><filter id="filter0_i_131_4" x="-9" y="-6" width="79" height="84" filterUnits="userSpaceOnUse" color-interpolation-filters="sRGB"><feFlood flood-opacity="0" result="BackgroundImageFix"/><feBlend in="SourceGraphic" in2="BackgroundImageFix" result="shape"/><feColorMatrix in="SourceAlpha" values="0 0 0 0 0 0 0 0 0 0 0 0 0 0 0 0 0 0 127 0" result="hardAlpha"/><feOffset dx="-9" dy="-6"/><feGaussianBlur stdDeviation="7"/><feComposite in2="hardAlpha" operator="arithmetic" k2="-1" k3="1"/><feColorMatrix values="0 0 0 0 0.420833 0 0 0 0 0.255797 0 0 0 0 0.103455 0 0 0 1 0"/><feBlend in2="shape" result="effect1_innerShadow_131_4"/></filter></defs></svg>